<svg width="165" height="20" viewBox="0 0 165 20" fill="none" xmlns="http://www.w3.org/2000/svg">
<path d="M36.3188 8.216C36.3188 8.664 36.2108 9.084 35.9948 9.476C35.7868 9.868 35.4548 10.184 34.9988 10.424C34.5508 10.664 33.9828 10.784 33.2948 10.784H31.8908V14H30.2108V5.624H33.2948C33.9428 5.624 34.4948 5.736 34.9508 5.96C35.4068 6.184 35.7468 6.492 35.9708 6.884C36.2028 7.276 36.3188 7.72 36.3188 8.216ZM33.2228 9.428C33.6868 9.428 34.0308 9.324 34.2548 9.116C34.4788 8.9 34.5908 8.6 34.5908 8.216C34.5908 7.4 34.1348 6.992 33.2228 6.992H31.8908V9.428H33.2228ZM37.0796 10.652C37.0796 9.98 37.2116 9.384 37.4756 8.864C37.7476 8.344 38.1116 7.944 38.5676 7.664C39.0316 7.384 39.5476 7.244 40.1156 7.244C40.6116 7.244 41.0436 7.344 41.4116 7.544C41.7876 7.744 42.0876 7.996 42.3116 8.3V7.352H44.0036V14H42.3116V13.028C42.0956 13.34 41.7956 13.6 41.4116 13.808C41.0356 14.008 40.5996 14.108 40.1036 14.108C39.5436 14.108 39.0316 13.964 38.5676 13.676C38.1116 13.388 37.7476 12.984 37.4756 12.464C37.2116 11.936 37.0796 11.332 37.0796 10.652ZM42.3116 10.676C42.3116 10.268 42.2316 9.92 42.0716 9.632C41.9116 9.336 41.6956 9.112 41.4236 8.96C41.1516 8.8 40.8596 8.72 40.5476 8.72C40.2356 8.72 39.9476 8.796 39.6836 8.948C39.4196 9.1 39.2036 9.324 39.0356 9.62C38.8756 9.908 38.7956 10.252 38.7956 10.652C38.7956 11.052 38.8756 11.404 39.0356 11.708C39.2036 12.004 39.4196 12.232 39.6836 12.392C39.9556 12.552 40.2436 12.632 40.5476 12.632C40.8596 12.632 41.1516 12.556 41.4236 12.404C41.6956 12.244 41.9116 12.02 42.0716 11.732C42.2316 11.436 42.3116 11.084 42.3116 10.676ZM47.3244 8.384C47.5404 8.032 47.8204 7.756 48.1644 7.556C48.5164 7.356 48.9164 7.256 49.3644 7.256V9.02H48.9204C48.3924 9.02 47.9924 9.144 47.7204 9.392C47.4564 9.64 47.3244 10.072 47.3244 10.688V14H45.6444V7.352H47.3244V8.384ZM50.064 10.676C50.064 9.988 50.204 9.388 50.484 8.876C50.764 8.356 51.152 7.956 51.648 7.676C52.144 7.388 52.712 7.244 53.352 7.244C54.176 7.244 54.856 7.452 55.392 7.868C55.936 8.276 56.3 8.852 56.484 9.596H54.672C54.576 9.308 54.412 9.084 54.18 8.924C53.956 8.756 53.676 8.672 53.34 8.672C52.86 8.672 52.48 8.848 52.2 9.2C51.92 9.544 51.78 10.036 51.78 10.676C51.78 11.308 51.92 11.8 52.2 12.152C52.48 12.496 52.86 12.668 53.34 12.668C54.02 12.668 54.464 12.364 54.672 11.756H56.484C56.3 12.476 55.936 13.048 55.392 13.472C54.848 13.896 54.168 14.108 53.352 14.108C52.712 14.108 52.144 13.968 51.648 13.688C51.152 13.4 50.764 13 50.484 12.488C50.204 11.968 50.064 11.364 50.064 10.676ZM63.8947 10.532C63.8947 10.772 63.8787 10.988 63.8467 11.18H58.9867C59.0267 11.66 59.1947 12.036 59.4907 12.308C59.7867 12.58 60.1507 12.716 60.5827 12.716C61.2067 12.716 61.6507 12.448 61.9147 11.912H63.7267C63.5347 12.552 63.1667 13.08 62.6227 13.496C62.0787 13.904 61.4107 14.108 60.6187 14.108C59.9787 14.108 59.4027 13.968 58.8907 13.688C58.3867 13.4 57.9907 12.996 57.7027 12.476C57.4227 11.956 57.2827 11.356 57.2827 10.676C57.2827 9.988 57.4227 9.384 57.7027 8.864C57.9827 8.344 58.3747 7.944 58.8787 7.664C59.3827 7.384 59.9627 7.244 60.6187 7.244C61.2507 7.244 61.8147 7.38 62.3107 7.652C62.8147 7.924 63.2027 8.312 63.4747 8.816C63.7547 9.312 63.8947 9.884 63.8947 10.532ZM62.1547 10.052C62.1467 9.62 61.9907 9.276 61.6867 9.02C61.3827 8.756 61.0107 8.624 60.5707 8.624C60.1547 8.624 59.8027 8.752 59.5147 9.008C59.2347 9.256 59.0627 9.604 58.9987 10.052H62.1547ZM66.801 5.12V14H65.121V5.12H66.801ZM74.6408 10.532C74.6408 10.772 74.6248 10.988 74.5928 11.18H69.7328C69.7728 11.66 69.9408 12.036 70.2368 12.308C70.5328 12.58 70.8968 12.716 71.3288 12.716C71.9528 12.716 72.3968 12.448 72.6608 11.912H74.4728C74.2808 12.552 73.9128 13.08 73.3688 13.496C72.8248 13.904 72.1568 14.108 71.3648 14.108C70.7248 14.108 70.1488 13.968 69.6368 13.688C69.1328 13.4 68.7368 12.996 68.4488 12.476C68.1688 11.956 68.0288 11.356 68.0288 10.676C68.0288 9.988 68.1688 9.384 68.4488 8.864C68.7288 8.344 69.1208 7.944 69.6248 7.664C70.1288 7.384 70.7088 7.244 71.3648 7.244C71.9968 7.244 72.5608 7.38 73.0568 7.652C73.5608 7.924 73.9488 8.312 74.2208 8.816C74.5008 9.312 74.6408 9.884 74.6408 10.532ZM72.9008 10.052C72.8928 9.62 72.7368 9.276 72.4328 9.02C72.1288 8.756 71.7568 8.624 71.3168 8.624C70.9008 8.624 70.5488 8.752 70.2608 9.008C69.9808 9.256 69.8088 9.604 69.7448 10.052H72.9008Z" fill="#F71963"/>
<path d="M81.4563 14.108C80.9363 14.108 80.4683 14.016 80.0523 13.832C79.6443 13.64 79.3203 13.384 79.0803 13.064C78.8403 12.736 78.7123 12.372 78.6963 11.972H80.1123C80.1363 12.252 80.2683 12.488 80.5083 12.68C80.7563 12.864 81.0643 12.956 81.4323 12.956C81.8163 12.956 82.1123 12.884 82.3203 12.74C82.5363 12.588 82.6443 12.396 82.6443 12.164C82.6443 11.916 82.5243 11.732 82.2843 11.612C82.0523 11.492 81.6803 11.36 81.1683 11.216C80.6723 11.08 80.2683 10.948 79.9563 10.82C79.6443 10.692 79.3723 10.496 79.1403 10.232C78.9163 9.968 78.8043 9.62 78.8043 9.188C78.8043 8.836 78.9083 8.516 79.1163 8.228C79.3243 7.932 79.6203 7.7 80.0043 7.532C80.3963 7.364 80.8443 7.28 81.3483 7.28C82.1003 7.28 82.7043 7.472 83.1603 7.856C83.6243 8.232 83.8723 8.748 83.9043 9.404H82.5363C82.5123 9.108 82.3923 8.872 82.1763 8.696C81.9603 8.52 81.6683 8.432 81.3003 8.432C80.9403 8.432 80.6643 8.5 80.4723 8.636C80.2803 8.772 80.1843 8.952 80.1843 9.176C80.1843 9.352 80.2483 9.5 80.3763 9.62C80.5043 9.74 80.6603 9.836 80.8443 9.908C81.0283 9.972 81.3003 10.056 81.6603 10.16C82.1403 10.288 82.5323 10.42 82.8363 10.556C83.1483 10.684 83.4163 10.876 83.6403 11.132C83.8643 11.388 83.9803 11.728 83.9883 12.152C83.9883 12.528 83.8843 12.864 83.6763 13.16C83.4683 13.456 83.1723 13.688 82.7883 13.856C82.4123 14.024 81.9683 14.108 81.4563 14.108ZM91.4544 7.388V14H90.0864V13.22C89.8704 13.492 89.5864 13.708 89.2344 13.868C88.8904 14.02 88.5224 14.096 88.1304 14.096C87.6104 14.096 87.1424 13.988 86.7264 13.772C86.3184 13.556 85.9944 13.236 85.7544 12.812C85.5224 12.388 85.4064 11.876 85.4064 11.276V7.388H86.7624V11.072C86.7624 11.664 86.9104 12.12 87.2064 12.44C87.5024 12.752 87.9064 12.908 88.4184 12.908C88.9304 12.908 89.3344 12.752 89.6304 12.44C89.9344 12.12 90.0864 11.664 90.0864 11.072V7.388H91.4544ZM92.8034 10.664C92.8034 10 92.9394 9.412 93.2114 8.9C93.4914 8.388 93.8674 7.992 94.3394 7.712C94.8194 7.424 95.3474 7.28 95.9234 7.28C96.4434 7.28 96.8954 7.384 97.2794 7.592C97.6714 7.792 97.9834 8.044 98.2154 8.348V7.388H99.5954V14H98.2154V13.016C97.9834 13.328 97.6674 13.588 97.2674 13.796C96.8674 14.004 96.4114 14.108 95.8994 14.108C95.3314 14.108 94.8114 13.964 94.3394 13.676C93.8674 13.38 93.4914 12.972 93.2114 12.452C92.9394 11.924 92.8034 11.328 92.8034 10.664ZM98.2154 10.688C98.2154 10.232 98.1194 9.836 97.9274 9.5C97.7434 9.164 97.4994 8.908 97.1954 8.732C96.8914 8.556 96.5634 8.468 96.2114 8.468C95.8594 8.468 95.5314 8.556 95.2274 8.732C94.9234 8.9 94.6754 9.152 94.4834 9.488C94.2994 9.816 94.2074 10.208 94.2074 10.664C94.2074 11.12 94.2994 11.52 94.4834 11.864C94.6754 12.208 94.9234 12.472 95.2274 12.656C95.5394 12.832 95.8674 12.92 96.2114 12.92C96.5634 12.92 96.8914 12.832 97.1954 12.656C97.4994 12.48 97.7434 12.224 97.9274 11.888C98.1194 11.544 98.2154 11.144 98.2154 10.688ZM103.792 14.108C103.272 14.108 102.804 14.016 102.388 13.832C101.98 13.64 101.656 13.384 101.416 13.064C101.176 12.736 101.048 12.372 101.032 11.972H102.448C102.472 12.252 102.604 12.488 102.844 12.68C103.092 12.864 103.4 12.956 103.768 12.956C104.152 12.956 104.448 12.884 104.656 12.74C104.872 12.588 104.98 12.396 104.98 12.164C104.98 11.916 104.86 11.732 104.62 11.612C104.388 11.492 104.016 11.36 103.504 11.216C103.008 11.08 102.604 10.948 102.292 10.82C101.98 10.692 101.708 10.496 101.476 10.232C101.252 9.968 101.14 9.62 101.14 9.188C101.14 8.836 101.244 8.516 101.452 8.228C101.66 7.932 101.956 7.7 102.34 7.532C102.732 7.364 103.18 7.28 103.684 7.28C104.436 7.28 105.04 7.472 105.496 7.856C105.96 8.232 106.208 8.748 106.24 9.404H104.872C104.848 9.108 104.728 8.872 104.512 8.696C104.296 8.52 104.004 8.432 103.636 8.432C103.276 8.432 103 8.5 102.808 8.636C102.616 8.772 102.52 8.952 102.52 9.176C102.52 9.352 102.584 9.5 102.712 9.62C102.84 9.74 102.996 9.836 103.18 9.908C103.364 9.972 103.636 10.056 103.996 10.16C104.476 10.288 104.868 10.42 105.172 10.556C105.484 10.684 105.752 10.876 105.976 11.132C106.2 11.388 106.316 11.728 106.324 12.152C106.324 12.528 106.22 12.864 106.012 13.16C105.804 13.456 105.508 13.688 105.124 13.856C104.748 14.024 104.304 14.108 103.792 14.108ZM110.464 10.688C110.464 10.008 110.6 9.412 110.872 8.9C111.152 8.38 111.536 7.98 112.024 7.7C112.512 7.42 113.072 7.28 113.704 7.28C114.504 7.28 115.164 7.472 115.684 7.856C116.212 8.232 116.568 8.772 116.752 9.476H115.276C115.156 9.148 114.964 8.892 114.7 8.708C114.436 8.524 114.104 8.432 113.704 8.432C113.144 8.432 112.696 8.632 112.36 9.032C112.032 9.424 111.868 9.976 111.868 10.688C111.868 11.4 112.032 11.956 112.36 12.356C112.696 12.756 113.144 12.956 113.704 12.956C114.496 12.956 115.02 12.608 115.276 11.912H116.752C116.56 12.584 116.2 13.12 115.672 13.52C115.144 13.912 114.488 14.108 113.704 14.108C113.072 14.108 112.512 13.968 112.024 13.688C111.536 13.4 111.152 13 110.872 12.488C110.6 11.968 110.464 11.368 110.464 10.688ZM120.983 14.108C120.359 14.108 119.795 13.968 119.291 13.688C118.787 13.4 118.391 13 118.103 12.488C117.815 11.968 117.671 11.368 117.671 10.688C117.671 10.016 117.819 9.42 118.115 8.9C118.411 8.38 118.815 7.98 119.327 7.7C119.839 7.42 120.411 7.28 121.043 7.28C121.675 7.28 122.247 7.42 122.759 7.7C123.271 7.98 123.675 8.38 123.971 8.9C124.267 9.42 124.415 10.016 124.415 10.688C124.415 11.36 124.263 11.956 123.959 12.476C123.655 12.996 123.239 13.4 122.711 13.688C122.191 13.968 121.615 14.108 120.983 14.108ZM120.983 12.92C121.335 12.92 121.663 12.836 121.967 12.668C122.279 12.5 122.531 12.248 122.723 11.912C122.915 11.576 123.011 11.168 123.011 10.688C123.011 10.208 122.919 9.804 122.735 9.476C122.551 9.14 122.307 8.888 122.003 8.72C121.699 8.552 121.371 8.468 121.019 8.468C120.667 8.468 120.339 8.552 120.035 8.72C119.739 8.888 119.503 9.14 119.327 9.476C119.151 9.804 119.063 10.208 119.063 10.688C119.063 11.4 119.243 11.952 119.603 12.344C119.971 12.728 120.431 12.92 120.983 12.92ZM133.771 7.28C134.291 7.28 134.755 7.388 135.163 7.604C135.579 7.82 135.903 8.14 136.135 8.564C136.375 8.988 136.495 9.5 136.495 10.1V14H135.139V10.304C135.139 9.712 134.991 9.26 134.695 8.948C134.399 8.628 133.995 8.468 133.483 8.468C132.971 8.468 132.563 8.628 132.259 8.948C131.963 9.26 131.815 9.712 131.815 10.304V14H130.459V10.304C130.459 9.712 130.311 9.26 130.015 8.948C129.719 8.628 129.315 8.468 128.803 8.468C128.291 8.468 127.883 8.628 127.579 8.948C127.283 9.26 127.135 9.712 127.135 10.304V14H125.767V7.388H127.135V8.144C127.359 7.872 127.643 7.66 127.987 7.508C128.331 7.356 128.699 7.28 129.091 7.28C129.619 7.28 130.091 7.392 130.507 7.616C130.923 7.84 131.243 8.164 131.467 8.588C131.667 8.188 131.979 7.872 132.403 7.64C132.827 7.4 133.283 7.28 133.771 7.28ZM139.604 8.36C139.836 8.056 140.152 7.8 140.552 7.592C140.952 7.384 141.404 7.28 141.908 7.28C142.484 7.28 143.008 7.424 143.48 7.712C143.96 7.992 144.336 8.388 144.608 8.9C144.88 9.412 145.016 10 145.016 10.664C145.016 11.328 144.88 11.924 144.608 12.452C144.336 12.972 143.96 13.38 143.48 13.676C143.008 13.964 142.484 14.108 141.908 14.108C141.404 14.108 140.956 14.008 140.564 13.808C140.172 13.6 139.852 13.344 139.604 13.04V17.144H138.236V7.388H139.604V8.36ZM143.624 10.664C143.624 10.208 143.528 9.816 143.336 9.488C143.152 9.152 142.904 8.9 142.592 8.732C142.288 8.556 141.96 8.468 141.608 8.468C141.264 8.468 140.936 8.556 140.624 8.732C140.32 8.908 140.072 9.164 139.88 9.5C139.696 9.836 139.604 10.232 139.604 10.688C139.604 11.144 139.696 11.544 139.88 11.888C140.072 12.224 140.32 12.48 140.624 12.656C140.936 12.832 141.264 12.92 141.608 12.92C141.96 12.92 142.288 12.832 142.592 12.656C142.904 12.472 143.152 12.208 143.336 11.864C143.528 11.52 143.624 11.12 143.624 10.664ZM147.737 8.348C147.937 8.012 148.201 7.752 148.529 7.568C148.865 7.376 149.261 7.28 149.717 7.28V8.696H149.369C148.833 8.696 148.425 8.832 148.145 9.104C147.873 9.376 147.737 9.848 147.737 10.52V14H146.369V7.388H147.737V8.348ZM150.518 10.664C150.518 10 150.654 9.412 150.926 8.9C151.206 8.388 151.582 7.992 152.054 7.712C152.534 7.424 153.062 7.28 153.638 7.28C154.158 7.28 154.61 7.384 154.994 7.592C155.386 7.792 155.698 8.044 155.93 8.348V7.388H157.31V14H155.93V13.016C155.698 13.328 155.382 13.588 154.982 13.796C154.582 14.004 154.126 14.108 153.614 14.108C153.046 14.108 152.526 13.964 152.054 13.676C151.582 13.38 151.206 12.972 150.926 12.452C150.654 11.924 150.518 11.328 150.518 10.664ZM155.93 10.688C155.93 10.232 155.834 9.836 155.642 9.5C155.458 9.164 155.214 8.908 154.91 8.732C154.606 8.556 154.278 8.468 153.926 8.468C153.574 8.468 153.246 8.556 152.942 8.732C152.638 8.9 152.39 9.152 152.198 9.488C152.014 9.816 151.922 10.208 151.922 10.664C151.922 11.12 152.014 11.52 152.198 11.864C152.39 12.208 152.638 12.472 152.942 12.656C153.254 12.832 153.582 12.92 153.926 12.92C154.278 12.92 154.606 12.832 154.91 12.656C155.214 12.48 155.458 12.224 155.642 11.888C155.834 11.544 155.93 11.144 155.93 10.688ZM161.507 14.108C160.987 14.108 160.519 14.016 160.103 13.832C159.695 13.64 159.371 13.384 159.131 13.064C158.891 12.736 158.763 12.372 158.747 11.972H160.163C160.187 12.252 160.319 12.488 160.559 12.68C160.807 12.864 161.115 12.956 161.483 12.956C161.867 12.956 162.163 12.884 162.371 12.74C162.587 12.588 162.695 12.396 162.695 12.164C162.695 11.916 162.575 11.732 162.335 11.612C162.103 11.492 161.731 11.36 161.219 11.216C160.723 11.08 160.319 10.948 160.007 10.82C159.695 10.692 159.423 10.496 159.191 10.232C158.967 9.968 158.855 9.62 158.855 9.188C158.855 8.836 158.959 8.516 159.167 8.228C159.375 7.932 159.671 7.7 160.055 7.532C160.447 7.364 160.895 7.28 161.399 7.28C162.151 7.28 162.755 7.472 163.211 7.856C163.675 8.232 163.923 8.748 163.955 9.404H162.587C162.563 9.108 162.443 8.872 162.227 8.696C162.011 8.52 161.719 8.432 161.351 8.432C160.991 8.432 160.715 8.5 160.523 8.636C160.331 8.772 160.235 8.952 160.235 9.176C160.235 9.352 160.299 9.5 160.427 9.62C160.555 9.74 160.711 9.836 160.895 9.908C161.079 9.972 161.351 10.056 161.711 10.16C162.191 10.288 162.583 10.42 162.887 10.556C163.199 10.684 163.467 10.876 163.691 11.132C163.915 11.388 164.031 11.728 164.039 12.152C164.039 12.528 163.935 12.864 163.727 13.16C163.519 13.456 163.223 13.688 162.839 13.856C162.463 14.024 162.019 14.108 161.507 14.108Z" fill="#9F9F9F"/>
<path d="M17.5 4.375H2.5C2.15482 4.375 1.875 4.65482 1.875 5V15C1.875 15.3452 2.15482 15.625 2.5 15.625H17.5C17.8452 15.625 18.125 15.3452 18.125 15V5C18.125 4.65482 17.8452 4.375 17.5 4.375Z" stroke="#9F9F9F" stroke-width="2" stroke-linecap="round" stroke-linejoin="round"/>
<path d="M13.1245 13.125H15.6245" stroke="#9F9F9F" stroke-width="2" stroke-linecap="round" stroke-linejoin="round"/>
<path d="M9.37451 13.125H10.6245" stroke="#9F9F9F" stroke-width="2" stroke-linecap="round" stroke-linejoin="round"/>
<path d="M1.87451 7.56665H18.1245" stroke="#9F9F9F" stroke-width="2" stroke-linecap="round" stroke-linejoin="round"/>
</svg>
