<svg width="203" height="20" viewBox="0 0 203 20" fill="none" xmlns="http://www.w3.org/2000/svg">
<g clip-path="url(#clip0_1_1272)">
<path d="M18.75 9.375H13.75V6.25H17.0769C17.2018 6.25 17.3238 6.28743 17.4272 6.35746C17.5307 6.42749 17.6108 6.5269 17.6572 6.64288L18.75 9.375Z" stroke="#9F9F9F" stroke-width="2" stroke-linecap="round" stroke-linejoin="round"/>
<path d="M1.25 11.25H13.75" stroke="#9F9F9F" stroke-width="2" stroke-linecap="round" stroke-linejoin="round"/>
<path d="M14.6875 16.875C15.723 16.875 16.5625 16.0355 16.5625 15C16.5625 13.9645 15.723 13.125 14.6875 13.125C13.652 13.125 12.8125 13.9645 12.8125 15C12.8125 16.0355 13.652 16.875 14.6875 16.875Z" stroke="#9F9F9F" stroke-width="2" stroke-miterlimit="10"/>
<path d="M5.3125 16.875C6.34803 16.875 7.1875 16.0355 7.1875 15C7.1875 13.9645 6.34803 13.125 5.3125 13.125C4.27697 13.125 3.4375 13.9645 3.4375 15C3.4375 16.0355 4.27697 16.875 5.3125 16.875Z" stroke="#9F9F9F" stroke-width="2" stroke-miterlimit="10"/>
<path d="M12.8125 15H7.1875" stroke="#9F9F9F" stroke-width="2" stroke-linecap="round" stroke-linejoin="round"/>
<path d="M3.4375 15H1.875C1.70924 15 1.55027 14.9342 1.43306 14.8169C1.31585 14.6997 1.25 14.5408 1.25 14.375V5.625C1.25 5.45924 1.31585 5.30027 1.43306 5.18306C1.55027 5.06585 1.70924 5 1.875 5H13.75V13.3762" stroke="#9F9F9F" stroke-width="2" stroke-linecap="round" stroke-linejoin="round"/>
<path d="M13.75 13.3762V9.375H18.75V14.375C18.75 14.5408 18.6842 14.6997 18.5669 14.8169C18.4497 14.9342 18.2908 15 18.125 15H16.5625" stroke="#9F9F9F" stroke-width="2" stroke-linecap="round" stroke-linejoin="round"/>
</g>
<path d="M35.0117 5.624V6.98H31.5197V9.128H34.1957V10.46H31.5197V14H29.8397V5.624H35.0117ZM37.883 8.384C38.099 8.032 38.379 7.756 38.723 7.556C39.075 7.356 39.475 7.256 39.923 7.256V9.02H39.479C38.951 9.02 38.551 9.144 38.279 9.392C38.015 9.64 37.883 10.072 37.883 10.688V14H36.203V7.352H37.883V8.384ZM47.2346 10.532C47.2346 10.772 47.2186 10.988 47.1866 11.18H42.3266C42.3666 11.66 42.5346 12.036 42.8306 12.308C43.1266 12.58 43.4906 12.716 43.9226 12.716C44.5466 12.716 44.9906 12.448 45.2546 11.912H47.0666C46.8746 12.552 46.5066 13.08 45.9626 13.496C45.4186 13.904 44.7506 14.108 43.9586 14.108C43.3186 14.108 42.7426 13.968 42.2306 13.688C41.7266 13.4 41.3306 12.996 41.0426 12.476C40.7626 11.956 40.6226 11.356 40.6226 10.676C40.6226 9.988 40.7626 9.384 41.0426 8.864C41.3226 8.344 41.7146 7.944 42.2186 7.664C42.7226 7.384 43.3026 7.244 43.9586 7.244C44.5906 7.244 45.1546 7.38 45.6506 7.652C46.1546 7.924 46.5426 8.312 46.8146 8.816C47.0946 9.312 47.2346 9.884 47.2346 10.532ZM45.4946 10.052C45.4866 9.62 45.3306 9.276 45.0266 9.02C44.7226 8.756 44.3506 8.624 43.9106 8.624C43.4946 8.624 43.1426 8.752 42.8546 9.008C42.5746 9.256 42.4026 9.604 42.3386 10.052H45.4946ZM50.4168 8.732V11.948C50.4168 12.172 50.4688 12.336 50.5728 12.44C50.6848 12.536 50.8688 12.584 51.1248 12.584H51.9048V14H50.8488C49.4328 14 48.7248 13.312 48.7248 11.936V8.732H47.9328V7.352H48.7248V5.708H50.4168V7.352H51.9048V8.732H50.4168ZM59.2932 10.532C59.2932 10.772 59.2772 10.988 59.2452 11.18H54.3852C54.4252 11.66 54.5932 12.036 54.8892 12.308C55.1852 12.58 55.5492 12.716 55.9812 12.716C56.6052 12.716 57.0492 12.448 57.3132 11.912H59.1252C58.9332 12.552 58.5652 13.08 58.0212 13.496C57.4772 13.904 56.8092 14.108 56.0172 14.108C55.3772 14.108 54.8012 13.968 54.2892 13.688C53.7852 13.4 53.3892 12.996 53.1012 12.476C52.8212 11.956 52.6812 11.356 52.6812 10.676C52.6812 9.988 52.8212 9.384 53.1012 8.864C53.3812 8.344 53.7732 7.944 54.2772 7.664C54.7812 7.384 55.3612 7.244 56.0172 7.244C56.6492 7.244 57.2132 7.38 57.7092 7.652C58.2132 7.924 58.6012 8.312 58.8732 8.816C59.1532 9.312 59.2932 9.884 59.2932 10.532ZM57.5532 10.052C57.5452 9.62 57.3892 9.276 57.0852 9.02C56.7812 8.756 56.4092 8.624 55.9692 8.624C55.5532 8.624 55.2012 8.752 54.9132 9.008C54.6332 9.256 54.4612 9.604 54.3972 10.052H57.5532ZM65.9828 7.244C66.4788 7.244 66.9148 7.344 67.2908 7.544C67.6668 7.736 67.9628 7.988 68.1788 8.3V7.352H69.8708V14.048C69.8708 14.664 69.7468 15.212 69.4988 15.692C69.2508 16.18 68.8788 16.564 68.3828 16.844C67.8868 17.132 67.2868 17.276 66.5828 17.276C65.6388 17.276 64.8628 17.056 64.2548 16.616C63.6548 16.176 63.3148 15.576 63.2348 14.816H64.9028C64.9908 15.12 65.1788 15.36 65.4668 15.536C65.7628 15.72 66.1188 15.812 66.5348 15.812C67.0228 15.812 67.4188 15.664 67.7228 15.368C68.0268 15.08 68.1788 14.64 68.1788 14.048V13.016C67.9628 13.328 67.6628 13.588 67.2788 13.796C66.9028 14.004 66.4708 14.108 65.9828 14.108C65.4228 14.108 64.9108 13.964 64.4468 13.676C63.9828 13.388 63.6148 12.984 63.3428 12.464C63.0788 11.936 62.9468 11.332 62.9468 10.652C62.9468 9.98 63.0788 9.384 63.3428 8.864C63.6148 8.344 63.9788 7.944 64.4348 7.664C64.8988 7.384 65.4148 7.244 65.9828 7.244ZM68.1788 10.676C68.1788 10.268 68.0988 9.92 67.9388 9.632C67.7788 9.336 67.5628 9.112 67.2908 8.96C67.0188 8.8 66.7268 8.72 66.4148 8.72C66.1028 8.72 65.8148 8.796 65.5508 8.948C65.2868 9.1 65.0708 9.324 64.9028 9.62C64.7428 9.908 64.6628 10.252 64.6628 10.652C64.6628 11.052 64.7428 11.404 64.9028 11.708C65.0708 12.004 65.2868 12.232 65.5508 12.392C65.8228 12.552 66.1108 12.632 66.4148 12.632C66.7268 12.632 67.0188 12.556 67.2908 12.404C67.5628 12.244 67.7788 12.02 67.9388 11.732C68.0988 11.436 68.1788 11.084 68.1788 10.676ZM73.1916 8.384C73.4076 8.032 73.6876 7.756 74.0316 7.556C74.3836 7.356 74.7836 7.256 75.2316 7.256V9.02H74.7876C74.2596 9.02 73.8596 9.144 73.5876 9.392C73.3236 9.64 73.1916 10.072 73.1916 10.688V14H71.5116V7.352H73.1916V8.384ZM75.9312 10.652C75.9312 9.98 76.0632 9.384 76.3272 8.864C76.5992 8.344 76.9632 7.944 77.4192 7.664C77.8832 7.384 78.3992 7.244 78.9672 7.244C79.4632 7.244 79.8952 7.344 80.2632 7.544C80.6392 7.744 80.9392 7.996 81.1632 8.3V7.352H82.8552V14H81.1632V13.028C80.9472 13.34 80.6472 13.6 80.2632 13.808C79.8872 14.008 79.4512 14.108 78.9552 14.108C78.3952 14.108 77.8832 13.964 77.4192 13.676C76.9632 13.388 76.5992 12.984 76.3272 12.464C76.0632 11.936 75.9312 11.332 75.9312 10.652ZM81.1632 10.676C81.1632 10.268 81.0832 9.92 80.9232 9.632C80.7632 9.336 80.5472 9.112 80.2752 8.96C80.0032 8.8 79.7112 8.72 79.3992 8.72C79.0872 8.72 78.7992 8.796 78.5352 8.948C78.2712 9.1 78.0552 9.324 77.8872 9.62C77.7272 9.908 77.6472 10.252 77.6472 10.652C77.6472 11.052 77.7272 11.404 77.8872 11.708C78.0552 12.004 78.2712 12.232 78.5352 12.392C78.8072 12.552 79.0952 12.632 79.3992 12.632C79.7112 12.632 80.0032 12.556 80.2752 12.404C80.5472 12.244 80.7632 12.02 80.9232 11.732C81.0832 11.436 81.1632 11.084 81.1632 10.676ZM80.9352 5.624L78.1752 6.884V5.684L80.9352 4.256V5.624ZM86.452 8.732V11.948C86.452 12.172 86.504 12.336 86.608 12.44C86.72 12.536 86.904 12.584 87.16 12.584H87.94V14H86.884C85.468 14 84.76 13.312 84.76 11.936V8.732H83.968V7.352H84.76V5.708H86.452V7.352H87.94V8.732H86.452ZM90.0003 6.56C89.7043 6.56 89.4563 6.468 89.2563 6.284C89.0643 6.092 88.9683 5.856 88.9683 5.576C88.9683 5.296 89.0643 5.064 89.2563 4.88C89.4563 4.688 89.7043 4.592 90.0003 4.592C90.2963 4.592 90.5403 4.688 90.7323 4.88C90.9323 5.064 91.0323 5.296 91.0323 5.576C91.0323 5.856 90.9323 6.092 90.7323 6.284C90.5403 6.468 90.2963 6.56 90.0003 6.56ZM90.8283 7.352V14H89.1483V7.352H90.8283ZM95.0322 14.108C94.4882 14.108 94.0002 14.012 93.5682 13.82C93.1362 13.62 92.7922 13.352 92.5362 13.016C92.2882 12.68 92.1522 12.308 92.1282 11.9H93.8202C93.8522 12.156 93.9762 12.368 94.1922 12.536C94.4162 12.704 94.6922 12.788 95.0202 12.788C95.3402 12.788 95.5882 12.724 95.7642 12.596C95.9482 12.468 96.0402 12.304 96.0402 12.104C96.0402 11.888 95.9282 11.728 95.7042 11.624C95.4882 11.512 95.1402 11.392 94.6602 11.264C94.1642 11.144 93.7562 11.02 93.4362 10.892C93.1242 10.764 92.8522 10.568 92.6202 10.304C92.3962 10.04 92.2842 9.684 92.2842 9.236C92.2842 8.868 92.3882 8.532 92.5962 8.228C92.8122 7.924 93.1162 7.684 93.5082 7.508C93.9082 7.332 94.3762 7.244 94.9122 7.244C95.7042 7.244 96.3362 7.444 96.8082 7.844C97.2802 8.236 97.5402 8.768 97.5882 9.44H95.9802C95.9562 9.176 95.8442 8.968 95.6442 8.816C95.4522 8.656 95.1922 8.576 94.8642 8.576C94.5602 8.576 94.3242 8.632 94.1562 8.744C93.9962 8.856 93.9162 9.012 93.9162 9.212C93.9162 9.436 94.0282 9.608 94.2522 9.728C94.4762 9.84 94.8242 9.956 95.2962 10.076C95.7762 10.196 96.1722 10.32 96.4842 10.448C96.7962 10.576 97.0642 10.776 97.2882 11.048C97.5202 11.312 97.6402 11.664 97.6482 12.104C97.6482 12.488 97.5402 12.832 97.3242 13.136C97.1162 13.44 96.8122 13.68 96.4122 13.856C96.0202 14.024 95.5602 14.108 95.0322 14.108Z" fill="#F71963"/>
<path d="M101.76 10.664C101.76 10 101.896 9.412 102.168 8.9C102.448 8.388 102.824 7.992 103.296 7.712C103.776 7.424 104.304 7.28 104.88 7.28C105.4 7.28 105.852 7.384 106.236 7.592C106.628 7.792 106.94 8.044 107.172 8.348V7.388H108.552V14H107.172V13.016C106.94 13.328 106.624 13.588 106.224 13.796C105.824 14.004 105.368 14.108 104.856 14.108C104.288 14.108 103.768 13.964 103.296 13.676C102.824 13.38 102.448 12.972 102.168 12.452C101.896 11.924 101.76 11.328 101.76 10.664ZM107.172 10.688C107.172 10.232 107.076 9.836 106.884 9.5C106.7 9.164 106.456 8.908 106.152 8.732C105.848 8.556 105.52 8.468 105.168 8.468C104.816 8.468 104.488 8.556 104.184 8.732C103.88 8.9 103.632 9.152 103.44 9.488C103.256 9.816 103.164 10.208 103.164 10.664C103.164 11.12 103.256 11.52 103.44 11.864C103.632 12.208 103.88 12.472 104.184 12.656C104.496 12.832 104.824 12.92 105.168 12.92C105.52 12.92 105.848 12.832 106.152 12.656C106.456 12.48 106.7 12.224 106.884 11.888C107.076 11.544 107.172 11.144 107.172 10.688ZM109.893 10.688C109.893 10.008 110.029 9.412 110.301 8.9C110.581 8.38 110.965 7.98 111.453 7.7C111.941 7.42 112.501 7.28 113.133 7.28C113.933 7.28 114.593 7.472 115.113 7.856C115.641 8.232 115.997 8.772 116.181 9.476H114.705C114.585 9.148 114.393 8.892 114.129 8.708C113.865 8.524 113.533 8.432 113.133 8.432C112.573 8.432 112.125 8.632 111.789 9.032C111.461 9.424 111.297 9.976 111.297 10.688C111.297 11.4 111.461 11.956 111.789 12.356C112.125 12.756 112.573 12.956 113.133 12.956C113.925 12.956 114.449 12.608 114.705 11.912H116.181C115.989 12.584 115.629 13.12 115.101 13.52C114.573 13.912 113.917 14.108 113.133 14.108C112.501 14.108 111.941 13.968 111.453 13.688C110.965 13.4 110.581 13 110.301 12.488C110.029 11.968 109.893 11.368 109.893 10.688ZM118.241 6.512C117.993 6.512 117.785 6.428 117.617 6.26C117.449 6.092 117.365 5.884 117.365 5.636C117.365 5.388 117.449 5.18 117.617 5.012C117.785 4.844 117.993 4.76 118.241 4.76C118.481 4.76 118.685 4.844 118.853 5.012C119.021 5.18 119.105 5.388 119.105 5.636C119.105 5.884 119.021 6.092 118.853 6.26C118.685 6.428 118.481 6.512 118.241 6.512ZM118.913 7.388V14H117.545V7.388H118.913ZM128.713 7.28C129.233 7.28 129.697 7.388 130.105 7.604C130.521 7.82 130.845 8.14 131.077 8.564C131.317 8.988 131.437 9.5 131.437 10.1V14H130.081V10.304C130.081 9.712 129.933 9.26 129.637 8.948C129.341 8.628 128.937 8.468 128.425 8.468C127.913 8.468 127.505 8.628 127.201 8.948C126.905 9.26 126.757 9.712 126.757 10.304V14H125.401V10.304C125.401 9.712 125.253 9.26 124.957 8.948C124.661 8.628 124.257 8.468 123.745 8.468C123.233 8.468 122.825 8.628 122.521 8.948C122.225 9.26 122.077 9.712 122.077 10.304V14H120.709V7.388H122.077V8.144C122.301 7.872 122.585 7.66 122.929 7.508C123.273 7.356 123.641 7.28 124.033 7.28C124.561 7.28 125.033 7.392 125.449 7.616C125.865 7.84 126.185 8.164 126.409 8.588C126.609 8.188 126.921 7.872 127.345 7.64C127.769 7.4 128.225 7.28 128.713 7.28ZM132.721 10.664C132.721 10 132.857 9.412 133.129 8.9C133.409 8.388 133.785 7.992 134.257 7.712C134.737 7.424 135.265 7.28 135.841 7.28C136.361 7.28 136.813 7.384 137.197 7.592C137.589 7.792 137.901 8.044 138.133 8.348V7.388H139.513V14H138.133V13.016C137.901 13.328 137.585 13.588 137.185 13.796C136.785 14.004 136.329 14.108 135.817 14.108C135.249 14.108 134.729 13.964 134.257 13.676C133.785 13.38 133.409 12.972 133.129 12.452C132.857 11.924 132.721 11.328 132.721 10.664ZM138.133 10.688C138.133 10.232 138.037 9.836 137.845 9.5C137.661 9.164 137.417 8.908 137.113 8.732C136.809 8.556 136.481 8.468 136.129 8.468C135.777 8.468 135.449 8.556 135.145 8.732C134.841 8.9 134.593 9.152 134.401 9.488C134.217 9.816 134.125 10.208 134.125 10.664C134.125 11.12 134.217 11.52 134.401 11.864C134.593 12.208 134.841 12.472 135.145 12.656C135.457 12.832 135.785 12.92 136.129 12.92C136.481 12.92 136.809 12.832 137.113 12.656C137.417 12.48 137.661 12.224 137.845 11.888C138.037 11.544 138.133 11.144 138.133 10.688ZM143.971 10.664C143.971 10 144.107 9.412 144.379 8.9C144.659 8.388 145.035 7.992 145.507 7.712C145.987 7.424 146.519 7.28 147.103 7.28C147.535 7.28 147.959 7.376 148.375 7.568C148.799 7.752 149.135 8 149.383 8.312V5.12H150.763V14H149.383V13.004C149.159 13.324 148.847 13.588 148.447 13.796C148.055 14.004 147.603 14.108 147.091 14.108C146.515 14.108 145.987 13.964 145.507 13.676C145.035 13.38 144.659 12.972 144.379 12.452C144.107 11.924 143.971 11.328 143.971 10.664ZM149.383 10.688C149.383 10.232 149.287 9.836 149.095 9.5C148.911 9.164 148.667 8.908 148.363 8.732C148.059 8.556 147.731 8.468 147.379 8.468C147.027 8.468 146.699 8.556 146.395 8.732C146.091 8.9 145.843 9.152 145.651 9.488C145.467 9.816 145.375 10.208 145.375 10.664C145.375 11.12 145.467 11.52 145.651 11.864C145.843 12.208 146.091 12.472 146.395 12.656C146.707 12.832 147.035 12.92 147.379 12.92C147.731 12.92 148.059 12.832 148.363 12.656C148.667 12.48 148.911 12.224 149.095 11.888C149.287 11.544 149.383 11.144 149.383 10.688ZM158.62 10.532C158.62 10.78 158.604 11.004 158.572 11.204H153.52C153.56 11.732 153.756 12.156 154.108 12.476C154.46 12.796 154.892 12.956 155.404 12.956C156.14 12.956 156.66 12.648 156.964 12.032H158.44C158.24 12.64 157.876 13.14 157.348 13.532C156.828 13.916 156.18 14.108 155.404 14.108C154.772 14.108 154.204 13.968 153.7 13.688C153.204 13.4 152.812 13 152.524 12.488C152.244 11.968 152.104 11.368 152.104 10.688C152.104 10.008 152.24 9.412 152.512 8.9C152.792 8.38 153.18 7.98 153.676 7.7C154.18 7.42 154.756 7.28 155.404 7.28C156.028 7.28 156.584 7.416 157.072 7.688C157.56 7.96 157.94 8.344 158.212 8.84C158.484 9.328 158.62 9.892 158.62 10.532ZM157.192 10.1C157.184 9.596 157.004 9.192 156.652 8.888C156.3 8.584 155.864 8.432 155.344 8.432C154.872 8.432 154.468 8.584 154.132 8.888C153.796 9.184 153.596 9.588 153.532 10.1H157.192ZM167.416 14L165.496 10.664H164.452V14H163.084V5.66H165.964C166.604 5.66 167.144 5.772 167.584 5.996C168.032 6.22 168.364 6.52 168.58 6.896C168.804 7.272 168.916 7.692 168.916 8.156C168.916 8.7 168.756 9.196 168.436 9.644C168.124 10.084 167.64 10.384 166.984 10.544L169.048 14H167.416ZM164.452 9.572H165.964C166.476 9.572 166.86 9.444 167.116 9.188C167.38 8.932 167.512 8.588 167.512 8.156C167.512 7.724 167.384 7.388 167.128 7.148C166.872 6.9 166.484 6.776 165.964 6.776H164.452V9.572ZM176.294 11.624C176.294 12.024 176.194 12.4 175.994 12.752C175.802 13.104 175.514 13.4 175.13 13.64C174.754 13.88 174.306 14.024 173.786 14.072V15.044H173.006V14.072C172.254 14 171.646 13.764 171.182 13.364C170.718 12.964 170.486 12.436 170.486 11.78H171.95C171.974 12.092 172.074 12.352 172.25 12.56C172.426 12.76 172.678 12.888 173.006 12.944V10.304C172.47 10.168 172.034 10.032 171.698 9.896C171.362 9.752 171.074 9.528 170.834 9.224C170.602 8.92 170.486 8.504 170.486 7.976C170.486 7.312 170.718 6.764 171.182 6.332C171.646 5.892 172.254 5.636 173.006 5.564V4.592H173.786V5.564C174.49 5.628 175.054 5.852 175.478 6.236C175.91 6.612 176.154 7.132 176.21 7.796H174.746C174.722 7.548 174.626 7.328 174.458 7.136C174.29 6.936 174.066 6.8 173.786 6.728V9.32C174.322 9.448 174.758 9.584 175.094 9.728C175.43 9.864 175.714 10.084 175.946 10.388C176.178 10.684 176.294 11.096 176.294 11.624ZM171.878 7.904C171.878 8.232 171.974 8.488 172.166 8.672C172.366 8.856 172.646 9.004 173.006 9.116V6.692C172.662 6.732 172.386 6.856 172.178 7.064C171.978 7.272 171.878 7.552 171.878 7.904ZM173.786 12.944C174.138 12.888 174.414 12.748 174.614 12.524C174.814 12.292 174.914 12.016 174.914 11.696C174.914 11.376 174.814 11.128 174.614 10.952C174.422 10.768 174.146 10.62 173.786 10.508V12.944ZM182.164 12.14C182.932 11.476 183.536 10.932 183.976 10.508C184.424 10.076 184.796 9.628 185.092 9.164C185.388 8.7 185.536 8.236 185.536 7.772C185.536 7.292 185.42 6.916 185.188 6.644C184.964 6.372 184.608 6.236 184.12 6.236C183.648 6.236 183.28 6.388 183.016 6.692C182.76 6.988 182.624 7.388 182.608 7.892H181.288C181.312 6.98 181.584 6.284 182.104 5.804C182.632 5.316 183.3 5.072 184.108 5.072C184.98 5.072 185.66 5.312 186.148 5.792C186.644 6.272 186.892 6.912 186.892 7.712C186.892 8.288 186.744 8.844 186.448 9.38C186.16 9.908 185.812 10.384 185.404 10.808C185.004 11.224 184.492 11.708 183.868 12.26L183.328 12.74H187.132V13.88H181.3V12.884L182.164 12.14ZM188.333 9.512C188.333 8.128 188.565 7.048 189.029 6.272C189.501 5.488 190.309 5.096 191.453 5.096C192.597 5.096 193.401 5.488 193.865 6.272C194.337 7.048 194.573 8.128 194.573 9.512C194.573 10.912 194.337 12.008 193.865 12.8C193.401 13.584 192.597 13.976 191.453 13.976C190.309 13.976 189.501 13.584 189.029 12.8C188.565 12.008 188.333 10.912 188.333 9.512ZM193.229 9.512C193.229 8.864 193.185 8.316 193.097 7.868C193.017 7.42 192.849 7.056 192.593 6.776C192.337 6.488 191.957 6.344 191.453 6.344C190.949 6.344 190.569 6.488 190.313 6.776C190.057 7.056 189.885 7.42 189.797 7.868C189.717 8.316 189.677 8.864 189.677 9.512C189.677 10.184 189.717 10.748 189.797 11.204C189.877 11.66 190.045 12.028 190.301 12.308C190.565 12.588 190.949 12.728 191.453 12.728C191.957 12.728 192.337 12.588 192.593 12.308C192.857 12.028 193.029 11.66 193.109 11.204C193.189 10.748 193.229 10.184 193.229 9.512ZM196.021 9.512C196.021 8.128 196.253 7.048 196.717 6.272C197.189 5.488 197.997 5.096 199.141 5.096C200.285 5.096 201.089 5.488 201.553 6.272C202.025 7.048 202.261 8.128 202.261 9.512C202.261 10.912 202.025 12.008 201.553 12.8C201.089 13.584 200.285 13.976 199.141 13.976C197.997 13.976 197.189 13.584 196.717 12.8C196.253 12.008 196.021 10.912 196.021 9.512ZM200.917 9.512C200.917 8.864 200.873 8.316 200.785 7.868C200.705 7.42 200.537 7.056 200.281 6.776C200.025 6.488 199.645 6.344 199.141 6.344C198.637 6.344 198.257 6.488 198.001 6.776C197.745 7.056 197.573 7.42 197.485 7.868C197.405 8.316 197.365 8.864 197.365 9.512C197.365 10.184 197.405 10.748 197.485 11.204C197.565 11.66 197.733 12.028 197.989 12.308C198.253 12.588 198.637 12.728 199.141 12.728C199.645 12.728 200.025 12.588 200.281 12.308C200.545 12.028 200.717 11.66 200.797 11.204C200.877 10.748 200.917 10.184 200.917 9.512Z" fill="#9F9F9F"/>
<defs>
<clipPath id="clip0_1_1272">
<rect width="20" height="20" fill="white"/>
</clipPath>
</defs>
</svg>
