<svg width="158" height="20" viewBox="0 0 158 20" fill="none" xmlns="http://www.w3.org/2000/svg">
<path d="M29.5436 9.812C29.5436 8.996 29.7316 8.264 30.1076 7.616C30.4916 6.968 31.0076 6.464 31.6556 6.104C32.3116 5.736 33.0276 5.552 33.8036 5.552C34.6916 5.552 35.4796 5.772 36.1676 6.212C36.8636 6.644 37.3676 7.26 37.6796 8.06H36.0356C35.8196 7.62 35.5196 7.292 35.1356 7.076C34.7516 6.86 34.3076 6.752 33.8036 6.752C33.2516 6.752 32.7596 6.876 32.3276 7.124C31.8956 7.372 31.5556 7.728 31.3076 8.192C31.0676 8.656 30.9476 9.196 30.9476 9.812C30.9476 10.428 31.0676 10.968 31.3076 11.432C31.5556 11.896 31.8956 12.256 32.3276 12.512C32.7596 12.76 33.2516 12.884 33.8036 12.884C34.3076 12.884 34.7516 12.776 35.1356 12.56C35.5196 12.344 35.8196 12.016 36.0356 11.576H37.6796C37.3676 12.376 36.8636 12.992 36.1676 13.424C35.4796 13.856 34.6916 14.072 33.8036 14.072C33.0196 14.072 32.3036 13.892 31.6556 13.532C31.0076 13.164 30.4916 12.656 30.1076 12.008C29.7316 11.36 29.5436 10.628 29.5436 9.812ZM42.1489 14.108C41.5249 14.108 40.9609 13.968 40.4569 13.688C39.9529 13.4 39.5569 13 39.2689 12.488C38.9809 11.968 38.8369 11.368 38.8369 10.688C38.8369 10.016 38.9849 9.42 39.2809 8.9C39.5769 8.38 39.9809 7.98 40.4929 7.7C41.0049 7.42 41.5769 7.28 42.2089 7.28C42.8409 7.28 43.4129 7.42 43.9249 7.7C44.4369 7.98 44.8409 8.38 45.1369 8.9C45.4329 9.42 45.5809 10.016 45.5809 10.688C45.5809 11.36 45.4289 11.956 45.1249 12.476C44.8209 12.996 44.4049 13.4 43.8769 13.688C43.3569 13.968 42.7809 14.108 42.1489 14.108ZM42.1489 12.92C42.5009 12.92 42.8289 12.836 43.1329 12.668C43.4449 12.5 43.6969 12.248 43.8889 11.912C44.0809 11.576 44.1769 11.168 44.1769 10.688C44.1769 10.208 44.0849 9.804 43.9009 9.476C43.7169 9.14 43.4729 8.888 43.1689 8.72C42.8649 8.552 42.5369 8.468 42.1849 8.468C41.8329 8.468 41.5049 8.552 41.2009 8.72C40.9049 8.888 40.6689 9.14 40.4929 9.476C40.3169 9.804 40.2289 10.208 40.2289 10.688C40.2289 11.4 40.4089 11.952 40.7689 12.344C41.1369 12.728 41.5969 12.92 42.1489 12.92ZM54.9372 7.28C55.4572 7.28 55.9212 7.388 56.3292 7.604C56.7452 7.82 57.0692 8.14 57.3012 8.564C57.5412 8.988 57.6612 9.5 57.6612 10.1V14H56.3052V10.304C56.3052 9.712 56.1572 9.26 55.8612 8.948C55.5652 8.628 55.1612 8.468 54.6492 8.468C54.1372 8.468 53.7292 8.628 53.4252 8.948C53.1292 9.26 52.9812 9.712 52.9812 10.304V14H51.6252V10.304C51.6252 9.712 51.4772 9.26 51.1812 8.948C50.8852 8.628 50.4812 8.468 49.9692 8.468C49.4572 8.468 49.0492 8.628 48.7452 8.948C48.4492 9.26 48.3012 9.712 48.3012 10.304V14H46.9332V7.388H48.3012V8.144C48.5252 7.872 48.8092 7.66 49.1532 7.508C49.4972 7.356 49.8652 7.28 50.2572 7.28C50.7852 7.28 51.2572 7.392 51.6732 7.616C52.0892 7.84 52.4092 8.164 52.6332 8.588C52.8332 8.188 53.1452 7.872 53.5692 7.64C53.9932 7.4 54.4492 7.28 54.9372 7.28ZM60.77 8.36C61.002 8.056 61.318 7.8 61.718 7.592C62.118 7.384 62.57 7.28 63.074 7.28C63.65 7.28 64.174 7.424 64.646 7.712C65.126 7.992 65.502 8.388 65.774 8.9C66.046 9.412 66.182 10 66.182 10.664C66.182 11.328 66.046 11.924 65.774 12.452C65.502 12.972 65.126 13.38 64.646 13.676C64.174 13.964 63.65 14.108 63.074 14.108C62.57 14.108 62.122 14.008 61.73 13.808C61.338 13.6 61.018 13.344 60.77 13.04V17.144H59.402V7.388H60.77V8.36ZM64.79 10.664C64.79 10.208 64.694 9.816 64.502 9.488C64.318 9.152 64.07 8.9 63.758 8.732C63.454 8.556 63.126 8.468 62.774 8.468C62.43 8.468 62.102 8.556 61.79 8.732C61.486 8.908 61.238 9.164 61.046 9.5C60.862 9.836 60.77 10.232 60.77 10.688C60.77 11.144 60.862 11.544 61.046 11.888C61.238 12.224 61.486 12.48 61.79 12.656C62.102 12.832 62.43 12.92 62.774 12.92C63.126 12.92 63.454 12.832 63.758 12.656C64.07 12.472 64.318 12.208 64.502 11.864C64.694 11.52 64.79 11.12 64.79 10.664ZM68.9028 8.348C69.1028 8.012 69.3668 7.752 69.6948 7.568C70.0308 7.376 70.4268 7.28 70.8828 7.28V8.696H70.5348C69.9988 8.696 69.5908 8.832 69.3108 9.104C69.0388 9.376 68.9028 9.848 68.9028 10.52V14H67.5348V7.388H68.9028V8.348ZM71.6842 10.664C71.6842 10 71.8202 9.412 72.0922 8.9C72.3722 8.388 72.7482 7.992 73.2202 7.712C73.7002 7.424 74.2282 7.28 74.8042 7.28C75.3242 7.28 75.7762 7.384 76.1602 7.592C76.5522 7.792 76.8642 8.044 77.0962 8.348V7.388H78.4762V14H77.0962V13.016C76.8642 13.328 76.5482 13.588 76.1482 13.796C75.7482 14.004 75.2922 14.108 74.7802 14.108C74.2122 14.108 73.6922 13.964 73.2202 13.676C72.7482 13.38 72.3722 12.972 72.0922 12.452C71.8202 11.924 71.6842 11.328 71.6842 10.664ZM77.0962 10.688C77.0962 10.232 77.0002 9.836 76.8082 9.5C76.6242 9.164 76.3802 8.908 76.0762 8.732C75.7722 8.556 75.4442 8.468 75.0922 8.468C74.7402 8.468 74.4122 8.556 74.1082 8.732C73.8042 8.9 73.5562 9.152 73.3642 9.488C73.1802 9.816 73.0882 10.208 73.0882 10.664C73.0882 11.12 73.1802 11.52 73.3642 11.864C73.5562 12.208 73.8042 12.472 74.1082 12.656C74.4202 12.832 74.7482 12.92 75.0922 12.92C75.4442 12.92 75.7722 12.832 76.0762 12.656C76.3802 12.48 76.6242 12.224 76.8082 11.888C77.0002 11.544 77.0962 11.144 77.0962 10.688Z" fill="#9F9F9F"/>
<path d="M82.6644 6.8V5.252H85.5564V14H83.8284V6.8H82.6644ZM87.2161 9.512C87.2161 8.128 87.4641 7.044 87.9601 6.26C88.4641 5.476 89.2961 5.084 90.4561 5.084C91.6161 5.084 92.4441 5.476 92.9401 6.26C93.4441 7.044 93.6961 8.128 93.6961 9.512C93.6961 10.904 93.4441 11.996 92.9401 12.788C92.4441 13.58 91.6161 13.976 90.4561 13.976C89.2961 13.976 88.4641 13.58 87.9601 12.788C87.4641 11.996 87.2161 10.904 87.2161 9.512ZM92.0401 9.512C92.0401 8.92 92.0001 8.424 91.9201 8.024C91.8481 7.616 91.6961 7.284 91.4641 7.028C91.2401 6.772 90.9041 6.644 90.4561 6.644C90.0081 6.644 89.6681 6.772 89.4361 7.028C89.2121 7.284 89.0601 7.616 88.9801 8.024C88.9081 8.424 88.8721 8.92 88.8721 9.512C88.8721 10.12 88.9081 10.632 88.9801 11.048C89.0521 11.456 89.2041 11.788 89.4361 12.044C89.6681 12.292 90.0081 12.416 90.4561 12.416C90.9041 12.416 91.2441 12.292 91.4761 12.044C91.7081 11.788 91.8601 11.456 91.9321 11.048C92.0041 10.632 92.0401 10.12 92.0401 9.512ZM94.9739 9.512C94.9739 8.128 95.2219 7.044 95.7179 6.26C96.2219 5.476 97.0539 5.084 98.2139 5.084C99.3739 5.084 100.202 5.476 100.698 6.26C101.202 7.044 101.454 8.128 101.454 9.512C101.454 10.904 101.202 11.996 100.698 12.788C100.202 13.58 99.3739 13.976 98.2139 13.976C97.0539 13.976 96.2219 13.58 95.7179 12.788C95.2219 11.996 94.9739 10.904 94.9739 9.512ZM99.7979 9.512C99.7979 8.92 99.7579 8.424 99.6779 8.024C99.6059 7.616 99.4539 7.284 99.2219 7.028C98.9979 6.772 98.6619 6.644 98.2139 6.644C97.7659 6.644 97.4259 6.772 97.1939 7.028C96.9699 7.284 96.8179 7.616 96.7379 8.024C96.6659 8.424 96.6299 8.92 96.6299 9.512C96.6299 10.12 96.6659 10.632 96.7379 11.048C96.8099 11.456 96.9619 11.788 97.1939 12.044C97.4259 12.292 97.7659 12.416 98.2139 12.416C98.6619 12.416 99.0019 12.292 99.2339 12.044C99.4659 11.788 99.6179 11.456 99.6899 11.048C99.7619 10.632 99.7979 10.12 99.7979 9.512ZM102.54 7.4C102.54 6.792 102.716 6.316 103.068 5.972C103.428 5.628 103.888 5.456 104.448 5.456C105.008 5.456 105.464 5.628 105.816 5.972C106.176 6.316 106.356 6.792 106.356 7.4C106.356 8.016 106.176 8.496 105.816 8.84C105.464 9.184 105.008 9.356 104.448 9.356C103.888 9.356 103.428 9.184 103.068 8.84C102.716 8.496 102.54 8.016 102.54 7.4ZM110.244 5.6L105.528 14H103.896L108.6 5.6H110.244ZM104.436 6.464C103.996 6.464 103.776 6.776 103.776 7.4C103.776 8.032 103.996 8.348 104.436 8.348C104.652 8.348 104.82 8.272 104.94 8.12C105.06 7.96 105.12 7.72 105.12 7.4C105.12 6.776 104.892 6.464 104.436 6.464ZM107.808 12.188C107.808 11.572 107.984 11.096 108.336 10.76C108.696 10.416 109.156 10.244 109.716 10.244C110.276 10.244 110.728 10.416 111.072 10.76C111.424 11.096 111.6 11.572 111.6 12.188C111.6 12.804 111.424 13.284 111.072 13.628C110.728 13.972 110.276 14.144 109.716 14.144C109.148 14.144 108.688 13.972 108.336 13.628C107.984 13.284 107.808 12.804 107.808 12.188ZM109.704 11.252C109.248 11.252 109.02 11.564 109.02 12.188C109.02 12.82 109.248 13.136 109.704 13.136C110.152 13.136 110.376 12.82 110.376 12.188C110.376 11.564 110.152 11.252 109.704 11.252ZM118.276 14.108C117.732 14.108 117.244 14.012 116.812 13.82C116.38 13.62 116.036 13.352 115.78 13.016C115.532 12.68 115.396 12.308 115.372 11.9H117.064C117.096 12.156 117.22 12.368 117.436 12.536C117.66 12.704 117.936 12.788 118.264 12.788C118.584 12.788 118.832 12.724 119.008 12.596C119.192 12.468 119.284 12.304 119.284 12.104C119.284 11.888 119.172 11.728 118.948 11.624C118.732 11.512 118.384 11.392 117.904 11.264C117.408 11.144 117 11.02 116.68 10.892C116.368 10.764 116.096 10.568 115.864 10.304C115.64 10.04 115.528 9.684 115.528 9.236C115.528 8.868 115.632 8.532 115.84 8.228C116.056 7.924 116.36 7.684 116.752 7.508C117.152 7.332 117.62 7.244 118.156 7.244C118.948 7.244 119.58 7.444 120.052 7.844C120.524 8.236 120.784 8.768 120.832 9.44H119.224C119.2 9.176 119.088 8.968 118.888 8.816C118.696 8.656 118.436 8.576 118.108 8.576C117.804 8.576 117.568 8.632 117.4 8.744C117.24 8.856 117.16 9.012 117.16 9.212C117.16 9.436 117.272 9.608 117.496 9.728C117.72 9.84 118.068 9.956 118.54 10.076C119.02 10.196 119.416 10.32 119.728 10.448C120.04 10.576 120.308 10.776 120.532 11.048C120.764 11.312 120.884 11.664 120.892 12.104C120.892 12.488 120.784 12.832 120.568 13.136C120.36 13.44 120.056 13.68 119.656 13.856C119.264 14.024 118.804 14.108 118.276 14.108ZM128.451 10.532C128.451 10.772 128.435 10.988 128.403 11.18H123.543C123.583 11.66 123.751 12.036 124.047 12.308C124.343 12.58 124.707 12.716 125.139 12.716C125.763 12.716 126.207 12.448 126.471 11.912H128.283C128.091 12.552 127.723 13.08 127.179 13.496C126.635 13.904 125.967 14.108 125.175 14.108C124.535 14.108 123.959 13.968 123.447 13.688C122.943 13.4 122.547 12.996 122.259 12.476C121.979 11.956 121.839 11.356 121.839 10.676C121.839 9.988 121.979 9.384 122.259 8.864C122.539 8.344 122.931 7.944 123.435 7.664C123.939 7.384 124.519 7.244 125.175 7.244C125.807 7.244 126.371 7.38 126.867 7.652C127.371 7.924 127.759 8.312 128.031 8.816C128.311 9.312 128.451 9.884 128.451 10.532ZM126.711 10.052C126.703 9.62 126.547 9.276 126.243 9.02C125.939 8.756 125.567 8.624 125.127 8.624C124.711 8.624 124.359 8.752 124.071 9.008C123.791 9.256 123.619 9.604 123.555 10.052H126.711ZM132.282 7.244C132.778 7.244 133.214 7.344 133.59 7.544C133.966 7.736 134.262 7.988 134.478 8.3V7.352H136.17V14.048C136.17 14.664 136.046 15.212 135.798 15.692C135.55 16.18 135.178 16.564 134.682 16.844C134.186 17.132 133.586 17.276 132.882 17.276C131.938 17.276 131.162 17.056 130.554 16.616C129.954 16.176 129.614 15.576 129.534 14.816H131.202C131.29 15.12 131.478 15.36 131.766 15.536C132.062 15.72 132.418 15.812 132.834 15.812C133.322 15.812 133.718 15.664 134.022 15.368C134.326 15.08 134.478 14.64 134.478 14.048V13.016C134.262 13.328 133.962 13.588 133.578 13.796C133.202 14.004 132.77 14.108 132.282 14.108C131.722 14.108 131.21 13.964 130.746 13.676C130.282 13.388 129.914 12.984 129.642 12.464C129.378 11.936 129.246 11.332 129.246 10.652C129.246 9.98 129.378 9.384 129.642 8.864C129.914 8.344 130.278 7.944 130.734 7.664C131.198 7.384 131.714 7.244 132.282 7.244ZM134.478 10.676C134.478 10.268 134.398 9.92 134.238 9.632C134.078 9.336 133.862 9.112 133.59 8.96C133.318 8.8 133.026 8.72 132.714 8.72C132.402 8.72 132.114 8.796 131.85 8.948C131.586 9.1 131.37 9.324 131.202 9.62C131.042 9.908 130.962 10.252 130.962 10.652C130.962 11.052 131.042 11.404 131.202 11.708C131.37 12.004 131.586 12.232 131.85 12.392C132.122 12.552 132.41 12.632 132.714 12.632C133.026 12.632 133.318 12.556 133.59 12.404C133.862 12.244 134.078 12.02 134.238 11.732C134.398 11.436 134.478 11.084 134.478 10.676ZM144.086 7.352V14H142.394V13.16C142.178 13.448 141.894 13.676 141.542 13.844C141.198 14.004 140.822 14.084 140.414 14.084C139.894 14.084 139.434 13.976 139.034 13.76C138.634 13.536 138.318 13.212 138.086 12.788C137.862 12.356 137.75 11.844 137.75 11.252V7.352H139.43V11.012C139.43 11.54 139.562 11.948 139.826 12.236C140.09 12.516 140.45 12.656 140.906 12.656C141.37 12.656 141.734 12.516 141.998 12.236C142.262 11.948 142.394 11.54 142.394 11.012V7.352H144.086ZM147.424 8.384C147.64 8.032 147.92 7.756 148.264 7.556C148.616 7.356 149.016 7.256 149.464 7.256V9.02H149.02C148.492 9.02 148.092 9.144 147.82 9.392C147.556 9.64 147.424 10.072 147.424 10.688V14H145.744V7.352H147.424V8.384ZM150.164 10.652C150.164 9.98 150.296 9.384 150.56 8.864C150.832 8.344 151.196 7.944 151.652 7.664C152.116 7.384 152.632 7.244 153.2 7.244C153.696 7.244 154.128 7.344 154.496 7.544C154.872 7.744 155.172 7.996 155.396 8.3V7.352H157.088V14H155.396V13.028C155.18 13.34 154.88 13.6 154.496 13.808C154.12 14.008 153.684 14.108 153.188 14.108C152.628 14.108 152.116 13.964 151.652 13.676C151.196 13.388 150.832 12.984 150.56 12.464C150.296 11.936 150.164 11.332 150.164 10.652ZM155.396 10.676C155.396 10.268 155.316 9.92 155.156 9.632C154.996 9.336 154.78 9.112 154.508 8.96C154.236 8.8 153.944 8.72 153.632 8.72C153.32 8.72 153.032 8.796 152.768 8.948C152.504 9.1 152.288 9.324 152.12 9.62C151.96 9.908 151.88 10.252 151.88 10.652C151.88 11.052 151.96 11.404 152.12 11.708C152.288 12.004 152.504 12.232 152.768 12.392C153.04 12.552 153.328 12.632 153.632 12.632C153.944 12.632 154.236 12.556 154.508 12.404C154.78 12.244 154.996 12.02 155.156 11.732C155.316 11.436 155.396 11.084 155.396 10.676Z" fill="#F71963"/>
<path d="M3.125 8.95833V4.375C3.125 4.20924 3.19085 4.05027 3.30806 3.93306C3.42527 3.81585 3.58424 3.75 3.75 3.75H16.25C16.4158 3.75 16.5747 3.81585 16.6919 3.93306C16.8092 4.05027 16.875 4.20924 16.875 4.375V8.95833C16.875 15.522 11.3042 17.6966 10.1919 18.0654C10.0675 18.1082 9.93246 18.1082 9.80811 18.0654C8.69578 17.6966 3.125 15.522 3.125 8.95833Z" stroke="#9F9F9F" stroke-width="2" stroke-linecap="round" stroke-linejoin="round"/>
<path d="M13.4375 8.125L8.85414 12.5L6.5625 10.3125" stroke="#9F9F9F" stroke-width="2" stroke-linecap="round" stroke-linejoin="round"/>
</svg>
